<svg xmlns="http://www.w3.org/2000/svg" version="1.1" xmlns:xlink="http://www.w3.org/1999/xlink" xmlns:svgjs="http://svgjs.dev/svgjs" width="1000" height="1125" viewBox="0 0 1000 1125"><g transform="matrix(1,0,0,1,0,0)"><svg viewBox="0 0 320 360" data-background-color="#0c1242" preserveAspectRatio="xMidYMid meet" height="1125" width="1000" xmlns="http://www.w3.org/2000/svg" xmlns:xlink="http://www.w3.org/1999/xlink"><g id="tight-bounds" transform="matrix(1,0,0,1,0,0)"><svg viewBox="0 0 320 360" height="360" width="320"><g><svg></svg></g><g><svg viewBox="0 0 320 360" height="360" width="320"><g><path d="M320 187.111c0-45.764-20.238-86.866-52.203-114.908-28.043-31.964-69.145-52.203-114.908-52.203-84.302 0-152.889 68.587-152.889 152.889 0 45.753 20.231 86.848 52.185 114.891 28.043 31.975 69.152 52.22 114.926 52.22 0.299 0 0.59-0.021 0.889-0.021 0.299 0 0.59 0.021 0.889 0.021 83.456 0 151.111-67.655 151.111-151.111 0-0.299-0.021-0.59-0.021-0.889 0-0.299 0.021-0.59 0.021-0.889zM59.833 263.097c-15.093-21.255-24.071-47.143-24.256-75.097 0.48-72.928 59.492-131.943 132.423-132.423 27.954 0.185 53.845 9.163 75.097 24.256 24.366 23.627 39.57 56.64 39.57 93.056 0 71.559-58.219 129.778-129.778 129.778-36.416 0-69.429-15.204-93.056-39.57zM3.556 172.889c0-82.343 66.99-149.333 149.333-149.333 35.051 0 67.292 12.167 92.8 32.462-22.98-13.824-49.863-21.796-78.578-21.796-84.302 0-152.889 68.587-152.889 152.889 0 28.708 7.968 55.584 21.785 78.56-20.288-25.5-32.452-57.739-32.451-92.782zM167.111 318.667c-35.84 0-68.363-14.418-92.107-37.743 21.952 15.89 48.864 25.298 77.885 25.298 73.522 0 133.333-59.812 133.333-133.333 0-29.02-9.408-55.932-25.298-77.885 23.324 23.744 37.742 56.267 37.743 92.107 0 72.54-59.015 131.556-131.556 131.556z" fill="#ffffff" fill-rule="nonzero" stroke="none" stroke-width="1" stroke-linecap="butt" stroke-linejoin="miter" stroke-miterlimit="10" stroke-dasharray="" stroke-dashoffset="0" font-family="none" font-weight="none" font-size="none" text-anchor="none" style="mix-blend-mode: normal" data-fill-palette-color="tertiary"></path></g><g transform="matrix(1,0,0,1,64,135.3436680187832)"><svg viewBox="0 0 192 89.3126639624336" height="89.3126639624336" width="192"><g><svg viewBox="0 0 348.25968255837563 162" height="89.3126639624336" width="192"><g><svg viewBox="0 0 191.60406091370558 162" height="162" width="191.60406091370558"><g id="textblocktransform"><svg viewBox="0 0 191.60406091370558 162" height="162" width="191.60406091370558" id="textblock"><g><svg viewBox="0 0 191.60406091370558 162" height="162" width="191.60406091370558"><g transform="matrix(1,0,0,1,0,0)"><svg width="191.60406091370558" viewBox="2.98 -37.74 45.5 38.47" height="162" data-palette-color="#ffffff"><path d="M23.78-36.67L23.78-36.67Q24.32-36.67 24.56-36.52L24.56-36.52Q24.8-36.04 24.88-35.67 24.95-35.3 24.95-34.81L24.95-34.81Q25-34.08 24.98-33.76 24.95-33.45 24.9-33.11L24.9-33.11Q24.85-32.32 24.85-31.62 24.85-30.91 24.85-30.13L24.85-30.13Q24.85-28.42 24.9-26.66 24.95-24.9 24.95-23.19L24.95-23.19Q24.95-22.51 24.93-21.85 24.9-21.19 24.9-20.51L24.9-20.51Q24.9-20.36 24.93-20.19 24.95-20.02 24.95-19.87L24.95-19.87Q24.95-19.43 24.93-19.02 24.9-18.6 24.9-18.21L24.9-18.21Q24.9-18.02 24.9-17.87 24.9-17.72 24.95-17.48L24.95-17.48Q24.85-17.09 24.85-16.94L24.85-16.94Q24.85-16.16 24.9-15.36 24.95-14.55 24.95-13.77L24.95-13.77Q24.95-13.04 24.98-12.35 25-11.67 25-10.94L25-10.94Q25-10.55 24.98-10.11 24.95-9.67 24.95-9.23L24.95-9.23Q24.95-8.2 25-7.15 25.05-6.1 25.1-5.08L25.1-5.08Q25.1-4.39 25.1-3.74 25.1-3.08 25.2-2.39L25.2-2.39Q25.2-1.61 25.12-1.25 25.05-0.88 24.95-0.54L24.95-0.54Q24.56-0.44 24.44-0.46 24.32-0.49 24.17-0.49L24.17-0.49Q23.49-0.29 23.29-0.12 23.1 0.05 22.85 0.24L22.85 0.24Q22.66 0.24 22.39 0.27 22.12 0.29 21.97 0.44L21.97 0.44Q21.73 0.34 21.58 0.39 21.44 0.44 21.29 0.44L21.29 0.44Q20.61 0.49 20.36 0.61 20.12 0.73 19.68 0.73L19.68 0.73Q19.29 0.1 19.09-0.27 18.9-0.63 18.46-0.59L18.46-0.59Q17.82-1.56 17.55-2.64 17.29-3.71 16.65-4.59L16.65-4.59Q16.6-4.98 16.5-5.08 16.41-5.18 16.31-5.47L16.31-5.47Q16.11-5.86 15.97-6.3 15.82-6.74 15.58-7.13L15.58-7.13Q15.19-7.96 14.79-8.76 14.4-9.57 14.06-10.45L14.06-10.45Q13.92-10.84 13.82-11.25 13.72-11.67 13.57-12.06L13.57-12.06Q13.48-12.26 13.35-12.45 13.23-12.65 13.13-12.79L13.13-12.79Q12.84-13.33 12.57-13.87 12.3-14.4 11.96-14.94L11.96-14.94Q11.87-15.19 11.69-15.41 11.52-15.63 11.33-15.87L11.33-15.87Q11.18-16.21 11.06-16.55 10.94-16.89 10.79-17.24L10.79-17.24Q10.69-17.53 10.5-17.85 10.3-18.16 10.21-18.46L10.21-18.46Q10.11-18.7 10.06-18.95 10.01-19.19 9.77-19.38L9.77-19.38Q9.42-18.8 9.42-18.6L9.42-18.6Q9.38-18.02 9.35-17.65 9.33-17.29 9.33-16.99L9.33-16.99Q9.33-16.65 9.4-16.33 9.47-16.02 9.47-15.72L9.47-15.72Q9.57-14.55 9.62-13.35 9.67-12.16 9.67-10.99L9.67-10.99Q9.62-10.06 9.64-9.57 9.67-9.08 9.72-8.59L9.72-8.59Q9.77-8.11 9.74-7.59 9.72-7.08 9.77-6.59L9.77-6.59Q9.77-5.47 9.79-4.42 9.81-3.37 9.81-2.25L9.81-2.25 9.81-1.07Q9.81-0.54 9.67-0.1L9.67-0.1Q8.94-0.1 8.72-0.15 8.5-0.2 8.25-0.29L8.25-0.29Q7.96-0.24 7.79-0.07 7.62 0.1 7.37 0.24L7.37 0.24Q6.84 0.2 6.79 0.27 6.74 0.34 6.59 0.44L6.59 0.44Q6.45 0.49 6.32 0.44 6.2 0.39 6.05 0.39L6.05 0.39Q5.66 0.29 5.42 0.29L5.42 0.29Q5.13 0.39 4.86 0.49 4.59 0.59 4.3 0.63L4.3 0.63Q4 0.1 3.96-0.63 3.91-1.37 3.56-1.9L3.56-1.9Q3.66-2.1 3.69-2.15 3.71-2.2 3.71-2.44L3.71-2.44Q3.71-3.56 3.66-4.69 3.61-5.81 3.61-6.93L3.61-6.93Q3.61-7.86 3.49-8.74 3.37-9.62 3.37-10.55L3.37-10.55Q3.37-10.84 3.42-11.13 3.47-11.43 3.47-11.77L3.47-11.77Q3.47-11.91 3.44-12.06 3.42-12.21 3.42-12.3L3.42-12.3Q3.32-13.18 3.3-14.11 3.27-15.04 3.27-15.97L3.27-15.97Q3.22-16.5 3.2-17.09 3.17-17.68 3.17-18.31L3.17-18.31Q3.17-18.55 3.22-18.85 3.27-19.14 3.27-19.43L3.27-19.43 3.27-21.48Q3.17-22.07 3.2-22.27 3.22-22.46 3.22-22.66L3.22-22.66Q3.22-23.1 3.15-23.51 3.08-23.93 3.08-24.41L3.08-24.41Q3.08-24.76 3.15-25.07 3.22-25.39 3.22-25.73L3.22-25.73Q3.22-26.46 3.15-27.15 3.08-27.83 3.08-28.56L3.08-28.56 3.08-32.71Q3.08-33.06 3.03-33.4 2.98-33.74 2.98-34.13L2.98-34.13Q3.27-34.81 3.52-34.84 3.76-34.86 3.96-35.01L3.96-35.01Q4.49-34.91 4.88-35.11L4.88-35.11Q5.52-35.06 5.66-35.25L5.66-35.25Q5.76-35.16 5.93-35.18 6.1-35.21 6.25-35.16L6.25-35.16Q6.4-35.25 6.49-35.35 6.59-35.45 6.79-35.55L6.79-35.55Q7.32-35.84 7.42-35.91 7.52-35.99 7.67-36.08L7.67-36.08Q7.91-36.08 7.98-35.94 8.06-35.79 8.3-35.79L8.3-35.79Q8.4-35.6 8.54-35.4 8.69-35.21 8.89-35.11L8.89-35.11Q9.28-34.28 9.81-33.69L9.81-33.69Q10.25-32.42 10.82-31.25 11.38-30.08 12.01-28.91L12.01-28.91Q12.01-28.76 12.06-28.54 12.11-28.32 12.16-28.22L12.16-28.22Q12.4-27.69 12.87-26.83 13.33-25.98 13.67-25.44L13.67-25.44Q13.77-25.24 13.92-25.1 14.06-24.95 14.16-24.76L14.16-24.76Q14.31-24.51 14.4-24.22 14.5-23.93 14.65-23.68L14.65-23.68Q14.89-23.1 15.21-22.53 15.53-21.97 15.87-21.39L15.87-21.39Q15.97-21.09 16.09-20.8 16.21-20.51 16.36-20.21L16.36-20.21Q16.75-19.34 17.07-18.87 17.38-18.41 17.53-17.87L17.53-17.87Q17.87-17.48 18.07-17.02 18.26-16.55 18.65-16.26L18.65-16.26Q18.7-16.5 18.75-17.7 18.8-18.9 18.8-20.31 18.8-21.73 18.8-23 18.8-24.27 18.8-24.71L18.8-24.71Q18.8-26.03 18.75-27.32 18.7-28.61 18.7-29.88L18.7-29.88Q18.7-30.91 18.73-31.96 18.75-33.01 18.8-34.03L18.8-34.03Q18.85-34.57 18.82-35.03 18.8-35.5 18.85-35.99L18.85-35.99Q18.9-36.23 19.04-36.47 19.19-36.72 19.29-36.96L19.29-36.96Q19.92-37.06 20.26-36.72L20.26-36.72Q20.56-36.87 20.97-36.87 21.39-36.87 21.68-36.91L21.68-36.91Q22.07-36.96 22.12-36.99 22.17-37.01 22.27-37.01L22.27-37.01Q22.46-36.91 22.63-36.87 22.8-36.82 23.05-36.72L23.05-36.72Q23.49-36.87 23.78-36.67ZM47.41-35.25L47.41-35.25Q47.8-34.67 48.07-34.06 48.34-33.45 48.34-33.2L48.34-33.2Q48.34-32.86 48.24-32.64 48.14-32.42 47.95-32.13L47.95-32.13Q46.09-31.3 44.21-30.42 42.33-29.54 40.38-28.76L40.38-28.76Q39.89-28.56 39.45-28.37 39.01-28.17 38.47-27.98L38.47-27.98Q38.38-27.88 38.06-27.81 37.74-27.73 37.5-27.73L37.5-27.73Q37.6-26.76 37.62-25.73 37.64-24.71 37.69-23.68L37.69-23.68Q37.69-23.39 37.79-23.12 37.89-22.85 37.89-22.56L37.89-22.56Q37.99-21.63 37.99-20.75 37.99-19.87 38.08-18.95L38.08-18.95Q39.89-19.73 41.67-20.53 43.45-21.34 45.26-22.12L45.26-22.12Q45.55-22.07 45.9-22.02 46.24-21.97 46.53-21.83L46.53-21.83Q46.63-21.73 46.73-21.58 46.82-21.44 46.97-21.34L46.97-21.34Q46.97-21.09 47.29-20.63 47.6-20.17 47.6-19.63L47.6-19.63Q47.6-19.53 47.75-19.31 47.9-19.09 47.95-18.99L47.95-18.99Q47.95-18.51 47.9-18.46L47.9-18.46Q48.24-18.21 48.36-17.82 48.48-17.43 48.48-17.04L48.48-17.04Q47.6-16.06 46.75-15.72 45.9-15.38 45.02-14.99L45.02-14.99Q44.77-14.84 44.48-14.7 44.19-14.55 43.89-14.4L43.89-14.4Q43.5-14.26 43.14-14.14 42.77-14.01 42.38-13.82L42.38-13.82Q41.79-13.48 41.06-13.04 40.33-12.6 39.74-12.5L39.74-12.5Q39.35-12.4 39.08-12.38 38.82-12.35 38.47-12.11L38.47-12.11Q38.43-11.52 38.45-10.96 38.47-10.4 38.47-9.86L38.47-9.86Q38.47-9.28 38.4-8.72 38.33-8.15 38.33-7.57L38.33-7.57Q38.33-6.59 38.23-5.64 38.13-4.69 38.13-3.76L38.13-3.76Q38.13-3.17 38.18-2.61 38.23-2.05 38.23-1.51L38.23-1.51Q38.23-1.22 38.13-0.98 38.03-0.73 37.94-0.49L37.94-0.49Q37.25-0.39 37.11-0.51 36.96-0.63 36.77-0.73L36.77-0.73Q36.52-0.73 36.45-0.54 36.37-0.34 36.13-0.24L36.13-0.24Q35.94-0.29 35.72-0.27 35.5-0.24 35.35-0.34L35.35-0.34Q34.96-0.2 34.64 0 34.32 0.2 33.93 0.29L33.93 0.29Q33.2 0.2 33.03 0.22 32.86 0.24 32.66 0.29L32.66 0.29Q32.32-0.05 32.35-0.56 32.37-1.07 32.08-1.46L32.08-1.46Q32.08-1.95 31.98-2.08 31.88-2.2 31.88-2.29L31.88-2.29Q31.88-2.44 31.91-2.61 31.93-2.78 31.93-2.98L31.93-2.98Q31.93-3.42 31.88-3.66L31.88-3.66Q31.93-3.96 31.98-4.57 32.03-5.18 32.08-5.83 32.13-6.49 32.13-7.13 32.13-7.76 32.13-8.15L32.13-8.15Q32.13-8.4 32.22-8.57 32.32-8.74 32.32-8.98L32.32-8.98Q32.32-9.38 32.3-9.69 32.27-10.01 32.27-10.35L32.27-10.35Q32.27-11.04 32.3-11.72 32.32-12.4 32.32-13.09L32.32-13.09Q32.32-15.19 32.1-17.21 31.88-19.24 31.88-21.29L31.88-21.29Q31.88-22.41 31.78-23.75 31.69-25.1 31.54-26.22L31.54-26.22Q31.54-26.46 31.47-26.64 31.39-26.81 31.39-27L31.39-27Q31.35-27.59 31.35-28.2 31.35-28.81 31.35-29.44L31.35-29.44Q31.35-29.83 31.35-30.54 31.35-31.25 31.35-32.01 31.35-32.76 31.37-33.45 31.39-34.13 31.44-34.42L31.44-34.42Q31.44-34.47 31.74-34.59 32.03-34.72 32.13-34.72L32.13-34.72Q32.37-34.72 32.52-34.57 32.66-34.42 32.86-34.28L32.86-34.28Q33.05-34.42 33.27-34.42 33.49-34.42 33.74-34.42L33.74-34.42Q34.47-34.57 34.64-34.4 34.81-34.23 34.91-34.23L34.91-34.23Q35.06-34.23 35.15-34.38 35.25-34.52 35.4-34.52L35.4-34.52Q35.79-34.52 35.86-34.33 35.94-34.13 36.13-34.13L36.13-34.13Q36.33-34.13 36.42-34.28 36.52-34.42 36.62-34.42L36.62-34.42Q36.77-34.42 36.91-34.35 37.06-34.28 37.2-34.28L37.2-34.28Q37.45-34.28 37.74-34.45 38.03-34.62 38.28-34.72L38.28-34.72Q38.67-34.81 38.99-34.96 39.3-35.11 39.65-35.21L39.65-35.21Q40.38-35.64 40.74-35.77 41.11-35.89 41.5-36.08L41.5-36.08Q42.33-36.47 43.09-36.84 43.85-37.21 44.68-37.55L44.68-37.55Q45.11-37.55 45.26-37.74L45.26-37.74Q45.6-37.6 46.14-37.7L46.14-37.7Q46.73-37.16 46.9-36.87 47.07-36.57 47.31-36.33L47.31-36.33Q47.6-35.94 47.7-35.94L47.7-35.94Q47.7-35.79 47.56-35.6 47.41-35.4 47.41-35.25Z" opacity="1" transform="matrix(1,0,0,1,0,0)" fill="#ffffff" class="wordmark-text-0" data-fill-palette-color="primary" id="text-0"></path></svg></g></svg></g></svg></g></svg></g><g transform="matrix(1,0,0,1,229.8483729137056,21.79434517766498)"><svg viewBox="0 0 118.41130964467004 118.41130964467004" height="118.41130964467004" width="118.41130964467004"><g data-palette-color="#ffffff"><rect width="32.36575796954315" height="118.41130964467004" fill="#ffffff" stroke="transparent" data-fill-palette-color="accent" x="0" fill-opacity="1"></rect><rect width="32.36575796954315" height="118.41130964467004" fill="#ffffff" stroke="transparent" data-fill-palette-color="accent" x="39.47043654822335" fill-opacity="0.75"></rect><rect width="32.36575796954315" height="118.41130964467004" fill="#ffffff" stroke="transparent" data-fill-palette-color="accent" x="78.9408730964467" fill-opacity="0.5"></rect></g></svg></g></svg></g></svg></g></svg></g><defs></defs></svg><rect width="320" height="360" fill="none" stroke="none" visibility="hidden"></rect></g></svg></g></svg>